# xmcd
#
# Track frame offsets: 
#        150
#        17641
#        34627
#        48771
#        66811
#        81626
#        101387
#        120515
#        144760
#        170209
#        189947
#
# Disc length: 2896 seconds
#
# Revision: 0
# Processed by: cddbd v1.5.2PL0 Copyright (c) Steve Scherf et al.
# Submitted via: ExactAudioCopyFreeDBPlugin 1.0
#
DISCID=870b4e0b
DTITLE=Ruckus - Love This Country
DYEAR=2013
DGENRE=Country
TTITLE0=Michael Abrey - Ruckus - Love This Country
TTITLE1=Michael Abrey - Ruckus - Dear John
TTITLE2=Michael Abrey - Ruckus - Dont't judge a book by its cover
TTITLE3=Michael Abrey - Ruckus - Denim and Dust
TTITLE4=Johnny Cash - Folsum Prison Blues
TTITLE5=Couldn't be bothered singin' song
TTITLE6=Michael Abrey - Smiley. What about the roses?
TTITLE7=Mike Henderson - Chris Stapleton - Ghosts of Mississippi
TTITLE8=John Schumann - Only 19
TTITLE9=Michael Abrey - Ruckus - Tessie
TTITLE10=Bruce Woodley - Dobe Newton - We are Australian
EXTD=
EXTT0=
EXTT1=
EXTT2=
EXTT3=
EXTT4=
EXTT5=
EXTT6=
EXTT7=
EXTT8=
EXTT9=
EXTT10=
PLAYORDER=
